<svg xmlns="http://www.w3.org/2000/svg" style="display:none">
  <symbol id="icon-hunter-knife" viewBox="0 0 24 24" fill="none">
    <path d="M3 14.5L12.8 12L20.5 4.5L19.2 11L12 16L6 16.5L3 14.5Z" stroke="currentColor" stroke-width="1.7" stroke-linejoin="round"/>
    <path d="M3.5 14.5L6.8 17.8" stroke="currentColor" stroke-width="1.7" stroke-linecap="round"/>
  </symbol>
  <symbol id="icon-fishing-knife" viewBox="0 0 24 24" fill="none">
    <path d="M4 14L12.5 12.2L18.8 6.2L20 8.5L14.5 14L9 15.5L4 14Z" stroke="currentColor" stroke-width="1.7" stroke-linejoin="round"/>
    <path d="M17.8 5.2C18.8 4.7 19.9 4.9 20.7 5.7C21.5 6.5 21.7 7.6 21.2 8.6" stroke="currentColor" stroke-width="1.7" stroke-linecap="round"/>
  </symbol>
  <symbol id="icon-picnic-basket" viewBox="0 0 24 24" fill="none">
    <path d="M5 10.5H19L18 18.5H6L5 10.5Z" stroke="currentColor" stroke-width="1.7" stroke-linejoin="round"/>
    <path d="M8.5 10.5V8.5C8.5 6.6 10.1 5 12 5C13.9 5 15.5 6.6 15.5 8.5V10.5" stroke="currentColor" stroke-width="1.7" stroke-linecap="round"/>
    <path d="M12 10.5V18.5" stroke="currentColor" stroke-width="1.7" stroke-linecap="round"/>
  </symbol>
  <symbol id="icon-bbq-skewers" viewBox="0 0 24 24" fill="none">
    <path d="M5 7L18 20" stroke="currentColor" stroke-width="1.7" stroke-linecap="round"/>
    <path d="M9 4L20 15" stroke="currentColor" stroke-width="1.7" stroke-linecap="round"/>
    <path d="M4.5 6L7 3.5L9.5 6L7 8.5L4.5 6Z" stroke="currentColor" stroke-width="1.7" stroke-linejoin="round"/>
    <path d="M8.5 3L11 0.5L13.5 3L11 5.5L8.5 3Z" stroke="currentColor" stroke-width="1.7" stroke-linejoin="round"/>
  </symbol>
  <symbol id="icon-steel" viewBox="0 0 24 24" fill="none">
    <path d="M12 3L18.5 6.5V12.5C18.5 16.2 15.9 19.6 12 21C8.1 19.6 5.5 16.2 5.5 12.5V6.5L12 3Z" stroke="currentColor" stroke-width="1.7" stroke-linejoin="round"/>
    <path d="M9.5 11.8L11.2 13.5L14.8 9.8" stroke="currentColor" stroke-width="1.7" stroke-linecap="round" stroke-linejoin="round"/>
  </symbol>
  <symbol id="icon-grip" viewBox="0 0 24 24" fill="none">
    <path d="M8 7.5C8 5.6 9.6 4 11.5 4H12.5C14.4 4 16 5.6 16 7.5V10L17.7 11.7C18.5 12.5 18.5 13.8 17.7 14.6L14.6 17.7C13.8 18.5 12.5 18.5 11.7 17.7L8.6 14.6C7.8 13.8 7.8 12.5 8.6 11.7L10.3 10V7.5" stroke="currentColor" stroke-width="1.7" stroke-linejoin="round"/>
    <path d="M10 8H14" stroke="currentColor" stroke-width="1.7" stroke-linecap="round"/>
  </symbol>
  <symbol id="icon-gift-box" viewBox="0 0 24 24" fill="none">
    <path d="M4.5 10H19.5V19H4.5V10Z" stroke="currentColor" stroke-width="1.7" stroke-linejoin="round"/>
    <path d="M3.5 7H20.5V10H3.5V7Z" stroke="currentColor" stroke-width="1.7" stroke-linejoin="round"/>
    <path d="M12 7V19" stroke="currentColor" stroke-width="1.7" stroke-linecap="round"/>
    <path d="M12 7C10.4 7 9 6.2 9 5C9 3.9 10 3 11.2 3C12.3 3 13.1 3.7 12 7Z" stroke="currentColor" stroke-width="1.7" stroke-linejoin="round"/>
    <path d="M12 7C13.6 7 15 6.2 15 5C15 3.9 14 3 12.8 3C11.7 3 10.9 3.7 12 7Z" stroke="currentColor" stroke-width="1.7" stroke-linejoin="round"/>
  </symbol>
  <symbol id="icon-delivery" viewBox="0 0 24 24" fill="none">
    <path d="M3.5 7.5H13.5V15.5H3.5V7.5Z" stroke="currentColor" stroke-width="1.7" stroke-linejoin="round"/>
    <path d="M13.5 10H17L20.5 13V15.5H13.5V10Z" stroke="currentColor" stroke-width="1.7" stroke-linejoin="round"/>
    <path d="M7 18.5C7.8 18.5 8.5 17.8 8.5 17C8.5 16.2 7.8 15.5 7 15.5C6.2 15.5 5.5 16.2 5.5 17C5.5 17.8 6.2 18.5 7 18.5Z" stroke="currentColor" stroke-width="1.7"/>
    <path d="M17 18.5C17.8 18.5 18.5 17.8 18.5 17C18.5 16.2 17.8 15.5 17 15.5C16.2 15.5 15.5 16.2 15.5 17C15.5 17.8 16.2 18.5 17 18.5Z" stroke="currentColor" stroke-width="1.7"/>
  </symbol>
</svg>
